<svg xmlns="http://www.w3.org/2000/svg" viewBox="0 0 512 512" width="512" height="512">
  <!--
    NEW-A "Awning / market stall"
    Scalloped awning over a shop body + cream doorway. Warmer and
    friendlier than the pitched-roof silhouettes (v1/v4). Green + cream
    only, on-brand. Fills the "no awning" gap (v3 is a flat band).
  -->
  <rect x="120" y="250" width="272" height="182" rx="10" fill="#005C46"/>
  <rect x="224" y="330" width="64" height="102" rx="6" fill="#F5EFE6"/>
  <rect x="104" y="206" width="304" height="24" rx="12" fill="#005C46"/>
  <path d="M104 230 v44 a25 25 0 0 0 50 0 v-44 Z" fill="#F5EFE6"/>
  <path d="M154 230 v44 a25 25 0 0 0 50 0 v-44 Z" fill="#005C46"/>
  <path d="M204 230 v44 a25 25 0 0 0 50 0 v-44 Z" fill="#F5EFE6"/>
  <path d="M254 230 v44 a25 25 0 0 0 50 0 v-44 Z" fill="#005C46"/>
  <path d="M304 230 v44 a25 25 0 0 0 50 0 v-44 Z" fill="#F5EFE6"/>
  <path d="M354 230 v44 a25 25 0 0 0 50 0 v-44 Z" fill="#005C46"/>
</svg>
